<svg width="34" height="34" viewBox="0 0 34 34" fill="none" xmlns="http://www.w3.org/2000/svg">
<path d="M23.2341 8.76591C20.4914 9.61163 17.9098 9.89324 15.6555 9.87422C13.2007 9.85341 11.1421 9.47842 9.6907 9.10635C8.96453 8.92016 8.38635 8.73396 7.9837 8.59121C7.78265 8.51992 7.62408 8.45882 7.51275 8.41443C7.45722 8.39228 7.41216 8.374 7.38017 8.36057C7.3644 8.35395 7.35136 8.34824 7.3415 8.344C7.33678 8.34197 7.33242 8.33995 7.32907 8.33847L7.32216 8.33571L8.52784 5.58877L8.52715 5.58808L8.54165 5.59429C8.55754 5.60096 8.5852 5.61273 8.62382 5.62813C8.70109 5.65894 8.82383 5.7056 8.98704 5.76347C9.3137 5.87927 9.80455 6.03891 10.4351 6.20058C11.6993 6.52469 13.5131 6.85617 15.6804 6.87454C19.8271 6.90961 25.3028 5.80159 30.7789 1.22114L31.7622 0.237819L31.8617 0.337256C31.8652 0.333837 31.8685 0.330315 31.872 0.326898L32.8878 1.36339L33.8836 2.35914L33.8732 2.3695L33.9719 2.46962C33.5901 2.84381 33.2277 3.21872 32.8857 3.5945L32.4424 4.09583C27.963 9.28176 27.0041 14.6197 27.164 18.7089C27.247 20.8315 27.6332 22.6226 27.9968 23.8782C28.1782 24.5049 28.3529 24.9956 28.4794 25.3222C28.5426 25.4851 28.5944 25.607 28.6279 25.6847C28.6445 25.7231 28.6565 25.7513 28.6638 25.7675L28.6714 25.7834L28.6707 25.7827L25.9555 27.0602L25.9548 27.0582C25.9542 27.0569 25.9535 27.0549 25.9528 27.0533C25.9513 27.0501 25.95 27.0461 25.9479 27.0416C25.9435 27.0319 25.9371 27.0186 25.93 27.0029C25.9157 26.9713 25.895 26.9274 25.8713 26.8724C25.8237 26.7621 25.7594 26.6051 25.6821 26.4056C25.5273 26.0061 25.3235 25.4327 25.1152 24.7131C24.6991 23.2762 24.2608 21.2402 24.1664 18.8256C24.0764 16.5231 24.3021 13.8807 25.1476 11.0951L2.77845 33.4642L0.65713 31.3429L23.2341 8.76591Z" fill="#A578C7"/>
</svg>
