<svg width="160" height="44" viewBox="0 0 160 44" fill="none" xmlns="http://www.w3.org/2000/svg">
<mask id="path-1-inside-1_2042_204" fill="white">
<path d="M22.3628 0.25C31.4681 0.25 39.2505 5.91047 42.3851 13.9043C42.8068 14.9797 43.808 15.75 44.9631 15.75C46.0948 15.75 47.0814 15.0098 47.5178 13.9657C50.7615 6.2042 58.4248 0.75 67.3628 0.75H138.363C150.237 0.75 159.863 10.3759 159.863 22.25C159.863 34.1241 150.237 43.75 138.363 43.75H67.3628C58.0223 43.75 50.0737 37.7934 47.1068 29.4718C46.75 28.471 45.8335 27.75 44.771 27.75C43.7297 27.75 42.8259 28.4434 42.4545 29.4163C39.3666 37.5047 31.5361 43.25 22.3628 43.25C10.4887 43.25 0.862793 33.6241 0.862793 21.75C0.862793 9.87588 10.4887 0.25 22.3628 0.25Z"/>
</mask>
<path d="M22.3628 0.25C31.4681 0.25 39.2505 5.91047 42.3851 13.9043C42.8068 14.9797 43.808 15.75 44.9631 15.75C46.0948 15.75 47.0814 15.0098 47.5178 13.9657C50.7615 6.2042 58.4248 0.75 67.3628 0.75H138.363C150.237 0.75 159.863 10.3759 159.863 22.25C159.863 34.1241 150.237 43.75 138.363 43.75H67.3628C58.0223 43.75 50.0737 37.7934 47.1068 29.4718C46.75 28.471 45.8335 27.75 44.771 27.75C43.7297 27.75 42.8259 28.4434 42.4545 29.4163C39.3666 37.5047 31.5361 43.25 22.3628 43.25C10.4887 43.25 0.862793 33.6241 0.862793 21.75C0.862793 9.87588 10.4887 0.25 22.3628 0.25Z" fill="#F7F3F8"/>
<path d="M42.4545 29.4163L43.3887 29.773L42.4545 29.4163ZM47.1068 29.4718L48.0487 29.1359L47.1068 29.4718ZM47.5178 13.9657L46.5951 13.5801L47.5178 13.9657ZM22.3628 0.25V1.25C31.043 1.25 38.4646 6.64555 41.4541 14.2693L42.3851 13.9043L43.3161 13.5392C40.0364 5.17539 31.8933 -0.75 22.3628 -0.75V0.25ZM47.5178 13.9657L48.4405 14.3513C51.5341 6.94881 58.8422 1.75 67.3628 1.75V0.75V-0.25C58.0075 -0.25 49.9888 5.4596 46.5951 13.5801L47.5178 13.9657ZM67.3628 0.75V1.75H138.363V0.75V-0.25H67.3628V0.75ZM138.363 0.75V1.75C149.685 1.75 158.863 10.9282 158.863 22.25H159.863H160.863C160.863 9.82359 150.789 -0.25 138.363 -0.25V0.75ZM159.863 22.25H158.863C158.863 33.5718 149.685 42.75 138.363 42.75V43.75V44.75C150.789 44.75 160.863 34.6764 160.863 22.25H159.863ZM138.363 43.75V42.75H67.3628V43.75V44.75H138.363V43.75ZM67.3628 43.75V42.75C58.4583 42.75 50.8782 37.072 48.0487 29.1359L47.1068 29.4718L46.1648 29.8076C49.2693 38.5149 57.5862 44.75 67.3628 44.75V43.75ZM42.4545 29.4163L41.5203 29.0596C38.5754 36.7735 31.1078 42.25 22.3628 42.25V43.25V44.25C31.9644 44.25 40.1579 38.2359 43.3887 29.773L42.4545 29.4163ZM22.3628 43.25V42.25C11.041 42.25 1.86279 33.0718 1.86279 21.75H0.862793H-0.137207C-0.137207 34.1764 9.93639 44.25 22.3628 44.25V43.25ZM0.862793 21.75H1.86279C1.86279 10.4282 11.041 1.25 22.3628 1.25V0.25V-0.75C9.93639 -0.75 -0.137207 9.32359 -0.137207 21.75H0.862793ZM44.771 27.75V26.75C43.2685 26.75 42.0223 27.7447 41.5203 29.0596L42.4545 29.4163L43.3887 29.773C43.6295 29.1422 44.1908 28.75 44.771 28.75V27.75ZM47.1068 29.4718L48.0487 29.1359C47.5667 27.7841 46.3042 26.75 44.771 26.75V27.75V28.75C45.3627 28.75 45.9332 29.1579 46.1648 29.8076L47.1068 29.4718ZM44.9631 15.75V16.75C46.5478 16.75 47.8687 15.7194 48.4405 14.3513L47.5178 13.9657L46.5951 13.5801C46.2942 14.3003 45.6417 14.75 44.9631 14.75V15.75ZM42.3851 13.9043L41.4541 14.2693C42.0063 15.6776 43.3452 16.75 44.9631 16.75V15.75V14.75C44.2707 14.75 43.6073 14.2818 43.3161 13.5392L42.3851 13.9043Z" fill="#A578C7" mask="url(#path-1-inside-1_2042_204)"/>
</svg>
