<svg width="17" height="17" viewBox="0 0 17 17" fill="none" xmlns="http://www.w3.org/2000/svg">
<path fill-rule="evenodd" clip-rule="evenodd" d="M7.5467 1.37703C7.73128 1.37703 7.8809 1.52665 7.8809 1.71123V8.06093C7.8809 8.24549 7.73128 8.39513 7.5467 8.39513H1.19699C1.01241 8.39513 0.862793 8.24549 0.862793 8.06093V1.71123C0.862793 1.52665 1.01241 1.37703 1.19699 1.37703H7.5467ZM6.46057 2.79736H2.28312V6.9748H6.46057V2.79736ZM16.7649 4.62888C16.8954 4.75938 16.8954 4.97099 16.7649 5.10149L12.9839 8.88249C12.8534 9.01299 12.6418 9.01299 12.5113 8.88249L8.73032 5.10149C8.59981 4.97099 8.59981 4.75938 8.73032 4.62888L12.5113 0.847877C12.6418 0.717374 12.8534 0.717374 12.9839 0.847877L16.7649 4.62888ZM14.9926 4.86517L12.7476 2.62024L10.5027 4.86519L12.7476 7.11015L14.9926 4.86517ZM7.5467 9.73191C7.73128 9.73191 7.8809 9.88154 7.8809 10.0661V16.4158C7.8809 16.6004 7.73128 16.75 7.5467 16.75H1.19699C1.01241 16.75 0.862793 16.6004 0.862793 16.4158V10.0661C0.862793 9.88154 1.01241 9.73191 1.19699 9.73191H7.5467ZM6.46057 11.1522H2.28312V15.3297H6.46057V11.1522ZM15.9016 9.73191C16.0862 9.73191 16.2358 9.88154 16.2358 10.0661V16.4158C16.2358 16.6004 16.0862 16.75 15.9016 16.75H9.55187C9.36729 16.75 9.21768 16.6004 9.21768 16.4158V10.0661C9.21768 9.88154 9.36729 9.73191 9.55187 9.73191H15.9016ZM14.8154 11.1522H10.638V15.3297H14.8154V11.1522Z" fill="#A578C7"/>
</svg>
