<svg width="159" height="44" viewBox="0 0 159 44" fill="none" xmlns="http://www.w3.org/2000/svg">
<mask id="path-1-inside-1_775_6871" fill="white">
<path d="M21.5 0C29.7912 0 36.9854 4.69352 40.5724 11.5683C41.2864 12.9368 42.6416 13.9082 44.1851 13.9082V13.9082C45.6837 13.9082 47.0097 12.991 47.7392 11.682C51.4542 5.01545 58.5735 0.505881 66.7471 0.505859H137.253C149.264 0.505892 159 10.2423 159 22.2529C159 34.2635 149.263 44 137.253 44H66.7471C57.8865 44 50.2648 38.7006 46.8759 31.0986C46.3498 29.9184 45.222 29.0801 43.9299 29.0801V29.0801C42.656 29.0801 41.5401 29.8956 41.0029 31.0506C37.5852 38.3991 30.1384 43.4941 21.5 43.4941C9.62588 43.4941 0 33.8683 0 21.9941V21.5C0 9.62588 9.62588 0 21.5 0Z"/>
</mask>
<path d="M21.5 0C29.7912 0 36.9854 4.69352 40.5724 11.5683C41.2864 12.9368 42.6416 13.9082 44.1851 13.9082V13.9082C45.6837 13.9082 47.0097 12.991 47.7392 11.682C51.4542 5.01545 58.5735 0.505881 66.7471 0.505859H137.253C149.264 0.505892 159 10.2423 159 22.2529C159 34.2635 149.263 44 137.253 44H66.7471C57.8865 44 50.2648 38.7006 46.8759 31.0986C46.3498 29.9184 45.222 29.0801 43.9299 29.0801V29.0801C42.656 29.0801 41.5401 29.8956 41.0029 31.0506C37.5852 38.3991 30.1384 43.4941 21.5 43.4941C9.62588 43.4941 0 33.8683 0 21.9941V21.5C0 9.62588 9.62588 0 21.5 0Z" fill="url(#paint0_linear_775_6871)"/>
<path d="M66.7471 0.505859L66.7471 -0.494141L66.7471 -0.494141L66.7471 0.505859ZM137.253 0.505859L137.253 -0.494141H137.253V0.505859ZM159 22.2529L160 22.2529V22.2529H159ZM137.253 44L137.253 45L137.253 45L137.253 44ZM66.7471 44L66.7471 45H66.7471V44ZM41.0029 31.0506L40.0962 30.6289L41.0029 31.0506ZM46.8759 31.0986L45.9625 31.5058L46.8759 31.0986ZM47.7392 11.682L46.8656 11.1952L47.7392 11.682ZM40.5724 11.5683L39.6859 12.0309L40.5724 11.5683ZM21.5 0V1C29.4041 1 36.2643 5.4733 39.6859 12.0309L40.5724 11.5683L41.459 11.1058C37.7065 3.91373 30.1783 -1 21.5 -1V0ZM47.7392 11.682L48.6127 12.1688C52.1584 5.80614 58.9508 1.50588 66.7471 1.50586L66.7471 0.505859L66.7471 -0.494141C58.1963 -0.494118 50.7501 4.22476 46.8656 11.1952L47.7392 11.682ZM66.7471 0.505859V1.50586H137.253V0.505859V-0.494141H66.7471V0.505859ZM137.253 0.505859L137.253 1.50586C148.711 1.50589 158 10.7946 158 22.2529H159H160C160 9.69005 149.816 -0.494106 137.253 -0.494141L137.253 0.505859ZM159 22.2529L158 22.2529C158 33.7112 148.711 43 137.253 43L137.253 44L137.253 45C149.816 45 160 34.8158 160 22.2529L159 22.2529ZM137.253 44V43H66.7471V44V45H137.253V44ZM66.7471 44L66.7471 43C58.2956 43 51.0233 37.9461 47.7893 30.6915L46.8759 31.0986L45.9625 31.5058C49.5063 39.4551 57.4774 45 66.7471 45L66.7471 44ZM41.0029 31.0506L40.0962 30.6289C36.8363 37.638 29.735 42.4941 21.5 42.4941V43.4941V44.4941C30.5418 44.4941 38.334 39.1603 41.9096 31.4723L41.0029 31.0506ZM21.5 43.4941V42.4941C10.1782 42.4941 1 33.316 1 21.9941H0H-1C-1 34.4205 9.07359 44.4941 21.5 44.4941V43.4941ZM0 21.9941H1V21.5H0H-1V21.9941H0ZM0 21.5H1C1 10.1782 10.1782 1 21.5 1V0V-1C9.07359 -1 -1 9.07359 -1 21.5H0ZM43.9299 29.0801V28.0801C42.2122 28.0801 40.773 29.1737 40.0962 30.6289L41.0029 31.0506L41.9096 31.4723C42.3072 30.6175 43.0998 30.0801 43.9299 30.0801V29.0801ZM46.8759 31.0986L47.7893 30.6915C47.1262 29.2042 45.6722 28.0801 43.9299 28.0801V29.0801V30.0801C44.7718 30.0801 45.5733 30.6327 45.9625 31.5058L46.8759 31.0986ZM44.1851 13.9082V14.9082C46.1076 14.9082 47.7386 13.7373 48.6127 12.1688L47.7392 11.682L46.8656 11.1952C46.2807 12.2448 45.2598 12.9082 44.1851 12.9082V13.9082ZM40.5724 11.5683L39.6859 12.0309C40.5401 13.6681 42.2044 14.9082 44.1851 14.9082V13.9082V12.9082C43.0788 12.9082 42.0328 12.2054 41.459 11.1058L40.5724 11.5683Z" fill="white" mask="url(#path-1-inside-1_775_6871)"/>
<path fill-rule="evenodd" clip-rule="evenodd" d="M29.373 20.6839C29.373 20.8685 29.2234 21.0181 29.0388 21.0181L22.6891 21.0181C22.5045 21.0181 22.3549 20.8685 22.3549 20.6839L22.3549 14.3342C22.3549 14.1496 22.5045 14 22.6891 14L29.0388 14C29.2234 14 29.373 14.1496 29.373 14.3342L29.373 20.6839ZM27.9526 19.5978L27.9526 15.4203L23.7752 15.4203L23.7752 19.5978L27.9526 19.5978ZM26.1211 29.9021C25.9906 30.0326 25.779 30.0326 25.6485 29.9021L21.8675 26.1211C21.737 25.9906 21.737 25.779 21.8675 25.6485L25.6485 21.8675C25.779 21.737 25.9906 21.737 26.1211 21.8675L29.9021 25.6485C30.0326 25.779 30.0326 25.9906 29.9021 26.1211L26.1211 29.9021ZM25.8848 28.1298L28.1298 25.8848L25.8848 23.6399L23.6399 25.8848L25.8848 28.1298ZM21.0181 20.6839C21.0181 20.8685 20.8685 21.0181 20.6839 21.0181L14.3342 21.0181C14.1496 21.0181 14 20.8685 14 20.6839L14 14.3342C14 14.1496 14.1496 14 14.3342 14L20.6839 14C20.8685 14 21.0181 14.1496 21.0181 14.3342L21.0181 20.6839ZM19.5978 19.5978L19.5978 15.4203L15.4203 15.4203L15.4203 19.5978L19.5978 19.5978ZM21.0181 29.0388C21.0181 29.2234 20.8685 29.373 20.6839 29.373L14.3342 29.373C14.1496 29.373 14 29.2234 14 29.0388L14 22.6891C14 22.5045 14.1496 22.3549 14.3342 22.3549L20.6839 22.3549C20.8685 22.3549 21.0181 22.5045 21.0181 22.6891L21.0181 29.0388ZM19.5978 27.9527L19.5978 23.7752L15.4203 23.7752L15.4203 27.9527L19.5978 27.9527Z" fill="white"/>
<defs>
<linearGradient id="paint0_linear_775_6871" x1="115.499" y1="-36.1206" x2="139.879" y2="57.2975" gradientUnits="userSpaceOnUse">
<stop offset="0.00142987" stop-color="#79EFFF"/>
<stop offset="0.179213" stop-color="#FD3CE3"/>
<stop offset="0.605683" stop-color="#912BFF"/>
<stop offset="0.930188" stop-color="#0095FF"/>
</linearGradient>
</defs>
</svg>
