<svg width="21" height="22" viewBox="0 0 21 22" fill="none" xmlns="http://www.w3.org/2000/svg">
<path d="M16.0797 4.35939C15.8387 4.35939 15.6031 4.43085 15.4027 4.56474C15.2023 4.69863 15.0462 4.88892 14.9539 5.11157C14.8617 5.33421 14.8376 5.5792 14.8846 5.81556C14.9316 6.05192 15.0477 6.26903 15.2181 6.43944C15.3885 6.60984 15.6056 6.72589 15.842 6.7729C16.0783 6.81992 16.3233 6.79579 16.5459 6.70356C16.7686 6.61134 16.9589 6.45517 17.0928 6.25479C17.2267 6.05442 17.2981 5.81884 17.2981 5.57785C17.2981 5.2547 17.1698 4.94478 16.9412 4.71627C16.7127 4.48776 16.4028 4.35939 16.0797 4.35939ZM20.7504 6.81662C20.7307 5.97416 20.5729 5.14063 20.2834 4.34924C20.0252 3.67211 19.6233 3.05897 19.1055 2.55201C18.6027 2.03155 17.9881 1.63225 17.3083 1.38431C16.519 1.08595 15.6845 0.924559 14.8409 0.907084C13.7646 0.846161 13.4194 0.846161 10.6575 0.846161C7.89566 0.846161 7.55043 0.846161 6.47412 0.907084C5.63049 0.924559 4.79604 1.08595 4.00674 1.38431C3.32813 1.63476 2.71409 2.03371 2.20951 2.55201C1.68905 3.0548 1.28975 3.66938 1.04182 4.34924C0.743456 5.13854 0.58206 5.97299 0.564585 6.81662C0.503662 7.89293 0.503662 8.23816 0.503662 11C0.503662 13.7619 0.503662 14.1071 0.564585 15.1834C0.58206 16.027 0.743456 16.8615 1.04182 17.6508C1.28975 18.3306 1.68905 18.9452 2.20951 19.448C2.71409 19.9663 3.32813 20.3653 4.00674 20.6157C4.79604 20.9141 5.63049 21.0755 6.47412 21.0929C7.55043 21.1539 7.89566 21.1539 10.6575 21.1539C13.4194 21.1539 13.7646 21.1539 14.8409 21.0929C15.6845 21.0755 16.519 20.9141 17.3083 20.6157C17.9881 20.3678 18.6027 19.9685 19.1055 19.448C19.6256 18.9429 20.0278 18.3292 20.2834 17.6508C20.5729 16.8594 20.7307 16.0259 20.7504 15.1834C20.7504 14.1071 20.8114 13.7619 20.8114 11C20.8114 8.23816 20.8114 7.89293 20.7504 6.81662ZM18.9227 15.0615C18.9153 15.7061 18.7986 16.3447 18.5775 16.9502C18.4154 17.392 18.155 17.7913 17.816 18.1179C17.4866 18.4534 17.0882 18.7133 16.6483 18.8794C16.0428 19.1005 15.4042 19.2172 14.7597 19.2246C13.7443 19.2754 13.3686 19.2855 10.6981 19.2855C8.02766 19.2855 7.65197 19.2855 6.63658 19.2246C5.96734 19.2372 5.30094 19.1341 4.66674 18.92C4.24615 18.7454 3.86596 18.4862 3.54982 18.1585C3.2128 17.8323 2.95566 17.4327 2.79843 16.9908C2.55053 16.3766 2.41304 15.7235 2.39228 15.0615C2.39228 14.0462 2.33135 13.6705 2.33135 11C2.33135 8.32955 2.33135 7.95385 2.39228 6.93847C2.39683 6.27954 2.51712 5.62654 2.74766 5.00924C2.92642 4.58066 3.20079 4.19861 3.54982 3.89231C3.8583 3.54319 4.23955 3.26592 4.66674 3.08001C5.28567 2.85667 5.938 2.73993 6.59597 2.73478C7.61135 2.73478 7.98705 2.67385 10.6575 2.67385C13.328 2.67385 13.7037 2.67385 14.719 2.73478C15.3636 2.74217 16.0022 2.8589 16.6077 3.08001C17.0691 3.25125 17.4832 3.52967 17.816 3.89231C18.1487 4.20422 18.4087 4.58555 18.5775 5.00924C18.8032 5.62754 18.92 6.28028 18.9227 6.93847C18.9735 7.95385 18.9837 8.32955 18.9837 11C18.9837 13.6705 18.9735 14.0462 18.9227 15.0615ZM10.6575 5.79108C9.62772 5.79309 8.62162 6.10029 7.76636 6.67388C6.91109 7.24746 6.24503 8.06168 5.85234 9.01366C5.45964 9.96565 5.35794 11.0127 5.56007 12.0224C5.7622 13.0322 6.2591 13.9594 6.98799 14.6868C7.71687 15.4143 8.64503 15.9094 9.65518 16.1096C10.6653 16.3097 11.7122 16.206 12.6634 15.8114C13.6146 15.4169 14.4275 14.7493 14.9994 13.8929C15.5713 13.0365 15.8766 12.0298 15.8766 11C15.8779 10.3147 15.7438 9.63595 15.4818 9.0027C15.2199 8.36946 14.8354 7.79424 14.3503 7.31015C13.8653 6.82606 13.2893 6.44263 12.6556 6.18193C12.0218 5.92124 11.3428 5.78841 10.6575 5.79108ZM10.6575 14.3812C9.98876 14.3812 9.33504 14.1829 8.779 13.8114C8.22296 13.4399 7.78958 12.9118 7.53366 12.2939C7.27774 11.6761 7.21078 10.9963 7.34125 10.3404C7.47171 9.68447 7.79374 9.08199 8.26662 8.60912C8.73949 8.13624 9.34197 7.81421 9.99786 7.68375C10.6538 7.55328 11.3336 7.62024 11.9514 7.87616C12.5693 8.13207 13.0974 8.56545 13.4689 9.1215C13.8404 9.67754 14.0387 10.3313 14.0387 11C14.0387 11.444 13.9513 11.8837 13.7814 12.2939C13.6114 12.7042 13.3624 13.0769 13.0484 13.3909C12.7344 13.7049 12.3617 13.9539 11.9514 14.1239C11.5412 14.2938 11.1015 14.3812 10.6575 14.3812Z" fill="#A578C7"/>
</svg>
