<svg width="68" height="68" viewBox="0 0 68 68" fill="none" xmlns="http://www.w3.org/2000/svg">
<g filter="url(#filter0_d_445_39790)">
<circle cx="34" cy="34" r="28" fill="url(#paint0_linear_445_39790)"/>
</g>
<path d="M41.1203 25.2813C40.8039 25.2813 40.4945 25.3751 40.2314 25.551C39.9683 25.7268 39.7632 25.9766 39.6421 26.269C39.521 26.5614 39.4893 26.8831 39.5511 27.1934C39.6128 27.5038 39.7652 27.7889 39.989 28.0127C40.2127 28.2364 40.4978 28.3888 40.8082 28.4506C41.1185 28.5123 41.4403 28.4806 41.7326 28.3595C42.025 28.2384 42.2749 28.0333 42.4507 27.7702C42.6265 27.5071 42.7203 27.1978 42.7203 26.8813C42.7203 26.457 42.5518 26.05 42.2517 25.7499C41.9516 25.4499 41.5447 25.2813 41.1203 25.2813ZM47.2537 28.508C47.2277 27.4017 47.0205 26.3072 46.6403 25.268C46.3013 24.3788 45.7736 23.5737 45.0937 22.908C44.4334 22.2245 43.6264 21.7002 42.7337 21.3746C41.6972 20.9828 40.6015 20.7709 39.4937 20.748C38.0803 20.668 37.627 20.668 34.0003 20.668C30.3737 20.668 29.9203 20.668 28.507 20.748C27.3992 20.7709 26.3034 20.9828 25.267 21.3746C24.3759 21.7035 23.5696 22.2274 22.907 22.908C22.2236 23.5682 21.6992 24.3752 21.3737 25.268C20.9819 26.3044 20.7699 27.4002 20.747 28.508C20.667 29.9213 20.667 30.3746 20.667 34.0013C20.667 37.628 20.667 38.0813 20.747 39.4946C20.7699 40.6024 20.9819 41.6982 21.3737 42.7346C21.6992 43.6274 22.2236 44.4344 22.907 45.0946C23.5696 45.7752 24.3759 46.2991 25.267 46.628C26.3034 47.0198 27.3992 47.2317 28.507 47.2546C29.9203 47.3346 30.3737 47.3346 34.0003 47.3346C37.627 47.3346 38.0803 47.3346 39.4937 47.2546C40.6015 47.2317 41.6972 47.0198 42.7337 46.628C43.6264 46.3024 44.4334 45.7781 45.0937 45.0946C45.7766 44.4314 46.3048 43.6256 46.6403 42.7346C47.0205 41.6954 47.2277 40.6009 47.2537 39.4946C47.2537 38.0813 47.3337 37.628 47.3337 34.0013C47.3337 30.3746 47.3337 29.9213 47.2537 28.508ZM44.8537 39.3346C44.8439 40.181 44.6907 41.0196 44.4003 41.8146C44.1874 42.3949 43.8455 42.9192 43.4003 43.348C42.9679 43.7886 42.4446 44.1299 41.867 44.348C41.0719 44.6383 40.2334 44.7916 39.387 44.8013C38.0537 44.868 37.5603 44.8813 34.0537 44.8813C30.547 44.8813 30.0537 44.8813 28.7203 44.8013C27.8415 44.8178 26.9665 44.6824 26.1337 44.4013C25.5814 44.1721 25.0821 43.8317 24.667 43.4013C24.2244 42.973 23.8868 42.4482 23.6803 41.868C23.3548 41.0615 23.1742 40.2039 23.147 39.3346C23.147 38.0013 23.067 37.508 23.067 34.0013C23.067 30.4946 23.067 30.0013 23.147 28.668C23.153 27.8027 23.3109 26.9452 23.6137 26.1346C23.8484 25.5718 24.2087 25.0702 24.667 24.668C25.0721 24.2095 25.5727 23.8454 26.1337 23.6013C26.9464 23.308 27.803 23.1547 28.667 23.148C30.0003 23.148 30.4937 23.068 34.0003 23.068C37.507 23.068 38.0003 23.068 39.3337 23.148C40.18 23.1577 41.0186 23.311 41.8137 23.6013C42.4196 23.8262 42.9634 24.1918 43.4003 24.668C43.8373 25.0775 44.1787 25.5783 44.4003 26.1346C44.6967 26.9465 44.85 27.8037 44.8537 28.668C44.9203 30.0013 44.9337 30.4946 44.9337 34.0013C44.9337 37.508 44.9203 38.0013 44.8537 39.3346ZM34.0003 27.1613C32.6481 27.1639 31.3269 27.5673 30.2039 28.3205C29.0808 29.0737 28.2062 30.1429 27.6905 31.393C27.1748 32.643 27.0413 34.0179 27.3067 35.3439C27.5721 36.6698 28.2246 37.8873 29.1818 38.8426C30.1389 39.7979 31.3577 40.448 32.6841 40.7108C34.0106 40.9737 35.3852 40.8374 36.6343 40.3193C37.8834 39.8013 38.9508 38.9246 39.7018 37.8C40.4528 36.6755 40.8537 35.3536 40.8537 34.0013C40.8554 33.1014 40.6793 32.2101 40.3353 31.3786C39.9914 30.547 39.4864 29.7917 38.8495 29.156C38.2126 28.5204 37.4563 28.0169 36.6241 27.6745C35.7919 27.3322 34.9002 27.1578 34.0003 27.1613ZM34.0003 38.4413C33.1222 38.4413 32.2637 38.1809 31.5336 37.693C30.8034 37.2052 30.2344 36.5117 29.8983 35.7004C29.5622 34.8891 29.4743 33.9964 29.6456 33.1351C29.817 32.2738 30.2398 31.4827 30.8608 30.8617C31.4817 30.2408 32.2728 29.8179 33.1341 29.6466C33.9954 29.4753 34.8881 29.5632 35.6994 29.8993C36.5107 30.2353 37.2042 30.8044 37.692 31.5346C38.1799 32.2647 38.4403 33.1232 38.4403 34.0013C38.4403 34.5844 38.3255 35.1617 38.1024 35.7004C37.8792 36.2391 37.5522 36.7286 37.1399 37.1409C36.7276 37.5531 36.2381 37.8802 35.6994 38.1033C35.1608 38.3265 34.5834 38.4413 34.0003 38.4413Z" fill="white"/>
<defs>
<filter id="filter0_d_445_39790" x="0" y="0" width="68" height="68" filterUnits="userSpaceOnUse" color-interpolation-filters="sRGB">
<feFlood flood-opacity="0" result="BackgroundImageFix"/>
<feColorMatrix in="SourceAlpha" type="matrix" values="0 0 0 0 0 0 0 0 0 0 0 0 0 0 0 0 0 0 127 0" result="hardAlpha"/>
<feOffset/>
<feGaussianBlur stdDeviation="3"/>
<feComposite in2="hardAlpha" operator="out"/>
<feColorMatrix type="matrix" values="0 0 0 0 0.705882 0 0 0 0 0.682353 0 0 0 0 0.654902 0 0 0 0.25 0"/>
<feBlend mode="normal" in2="BackgroundImageFix" result="effect1_dropShadow_445_39790"/>
<feBlend mode="normal" in="SourceGraphic" in2="effect1_dropShadow_445_39790" result="shape"/>
</filter>
<linearGradient id="paint0_linear_445_39790" x1="34" y1="62" x2="58.5" y2="-12" gradientUnits="userSpaceOnUse">
<stop stop-color="#F5B25D"/>
<stop offset="0.333333" stop-color="#E04C55"/>
<stop offset="0.666667" stop-color="#B2388C"/>
<stop offset="1" stop-color="#8D4E9C"/>
</linearGradient>
</defs>
</svg>
