<svg width="68" height="68" viewBox="0 0 68 68" fill="none" xmlns="http://www.w3.org/2000/svg">
<g filter="url(#filter0_d_445_39814)">
<circle cx="34" cy="34" r="28" fill="#007FFF"/>
</g>
<path d="M37.4712 36.5475L40.7837 31.6475C41.1112 31.165 40.49 30.6413 40.015 30.9863L36.4425 33.505C36.3229 33.5882 36.1807 33.6328 36.035 33.6328C35.8893 33.6328 35.7471 33.5882 35.6275 33.505L32.9825 31.6588C32.1912 31.1125 31.06 31.3125 30.5287 32.0775L27.2162 36.9775C26.8887 37.46 27.51 37.985 27.985 37.6388L31.5575 35.12C31.6771 35.0369 31.8193 34.9923 31.965 34.9923C32.1107 34.9923 32.2529 35.0369 32.3725 35.12L35.0175 36.935C35.8087 37.5125 36.94 37.3125 37.4712 36.5475Z" fill="white"/>
<path fill-rule="evenodd" clip-rule="evenodd" d="M34 21.8125C30.7677 21.8125 27.6677 23.0965 25.3821 25.3821C23.0965 27.6677 21.8125 30.7677 21.8125 34C21.8106 35.6433 22.1419 37.27 22.7864 38.7817C23.431 40.2934 24.3754 41.6586 25.5625 42.795V45.875C25.5624 46.0236 25.5977 46.17 25.6653 46.3023C25.7329 46.4346 25.831 46.5489 25.9515 46.6359C26.072 46.7228 26.2115 46.7798 26.3583 46.8023C26.5052 46.8247 26.6553 46.8119 26.7963 46.765L30.2713 45.6063C31.4764 45.9925 32.7344 46.1886 34 46.1875C40.7313 46.1875 46.1875 40.7313 46.1875 34C46.1875 27.2687 40.7313 21.8125 34 21.8125ZM23.6875 34C23.6884 31.812 24.3851 29.6809 25.677 27.915C26.9689 26.1491 28.789 24.8399 30.8741 24.1767C32.9592 23.5134 35.2012 23.5306 37.2759 24.2256C39.3505 24.9207 41.1504 26.2576 42.4152 28.043C43.6799 29.8285 44.344 31.9699 44.3114 34.1577C44.2787 36.3455 43.5511 38.4662 42.2337 40.2132C40.9163 41.9601 39.0774 43.2428 36.9829 43.8757C34.8884 44.5085 32.6469 44.4588 30.5825 43.7338C30.3862 43.6647 30.1724 43.6629 29.975 43.7288L27.4375 44.5737V42.3862C27.4377 42.2541 27.4099 42.1235 27.3561 42.0028C27.3022 41.8822 27.2235 41.7743 27.125 41.6863C26.0422 40.7201 25.1761 39.5357 24.5837 38.211C23.9912 36.8863 23.6858 35.4512 23.6875 34Z" fill="white"/>
<defs>
<filter id="filter0_d_445_39814" x="0" y="0" width="68" height="68" filterUnits="userSpaceOnUse" color-interpolation-filters="sRGB">
<feFlood flood-opacity="0" result="BackgroundImageFix"/>
<feColorMatrix in="SourceAlpha" type="matrix" values="0 0 0 0 0 0 0 0 0 0 0 0 0 0 0 0 0 0 127 0" result="hardAlpha"/>
<feOffset/>
<feGaussianBlur stdDeviation="3"/>
<feComposite in2="hardAlpha" operator="out"/>
<feColorMatrix type="matrix" values="0 0 0 0 0.705882 0 0 0 0 0.682353 0 0 0 0 0.654902 0 0 0 0.25 0"/>
<feBlend mode="normal" in2="BackgroundImageFix" result="effect1_dropShadow_445_39814"/>
<feBlend mode="normal" in="SourceGraphic" in2="effect1_dropShadow_445_39814" result="shape"/>
</filter>
</defs>
</svg>
