<svg width="68" height="68" viewBox="0 0 68 68" fill="none" xmlns="http://www.w3.org/2000/svg">
<g filter="url(#filter0_d_270_2473)">
<circle cx="34" cy="34" r="28" fill="#031527"/>
</g>
<path d="M39.8673 26.4467C38.9956 25.4928 38.5152 24.2679 38.5153 23H34.574V38.1556C34.5442 38.9759 34.1831 39.7531 33.5667 40.3232C32.9504 40.8932 32.127 41.2116 31.2704 41.2111C29.4592 41.2111 27.9541 39.7933 27.9541 38.0333C27.9541 35.9311 30.0714 34.3544 32.2526 35.0022V31.14C27.852 30.5778 24 33.8533 24 38.0333C24 42.1033 27.5204 45 31.2577 45C35.2628 45 38.5153 41.8833 38.5153 38.0333V30.3456C40.1135 31.4454 42.0324 32.0355 44 32.0322V28.2556C44 28.2556 41.602 28.3656 39.8673 26.4467Z" fill="white"/>
<defs>
<filter id="filter0_d_270_2473" x="0" y="0" width="68" height="68" filterUnits="userSpaceOnUse" color-interpolation-filters="sRGB">
<feFlood flood-opacity="0" result="BackgroundImageFix"/>
<feColorMatrix in="SourceAlpha" type="matrix" values="0 0 0 0 0 0 0 0 0 0 0 0 0 0 0 0 0 0 127 0" result="hardAlpha"/>
<feOffset/>
<feGaussianBlur stdDeviation="3"/>
<feComposite in2="hardAlpha" operator="out"/>
<feColorMatrix type="matrix" values="0 0 0 0 0.705882 0 0 0 0 0.682353 0 0 0 0 0.654902 0 0 0 0.25 0"/>
<feBlend mode="normal" in2="BackgroundImageFix" result="effect1_dropShadow_270_2473"/>
<feBlend mode="normal" in="SourceGraphic" in2="effect1_dropShadow_270_2473" result="shape"/>
</filter>
</defs>
</svg>
