<svg width="34" height="33" viewBox="0 0 34 33" fill="none" xmlns="http://www.w3.org/2000/svg">
<g clip-path="url(#clip0_168_432)">
<path fill-rule="evenodd" clip-rule="evenodd" d="M27.5593 6.38641C27.8935 6.24574 28.2593 6.19722 28.6187 6.24591C28.978 6.2946 29.3177 6.43871 29.6025 6.66324C29.8872 6.88778 30.1066 7.18453 30.2377 7.52261C30.3688 7.86069 30.407 8.22774 30.3481 8.58556L27.2807 27.1918C26.9831 28.9865 25.0139 30.0158 23.3679 29.1218C21.9911 28.3738 19.9461 27.2215 18.1067 26.0192C17.187 25.4173 14.3698 23.49 14.716 22.1186C15.0136 20.946 19.7473 16.5396 22.4523 13.9198C23.514 12.8905 23.0298 12.2968 21.776 13.2435C18.6626 15.5942 13.6638 19.1688 12.0111 20.175C10.5531 21.0623 9.79297 21.2138 8.8841 21.0623C7.22595 20.7864 5.68816 20.359 4.43305 19.8383C2.73703 19.135 2.81953 16.8033 4.4317 16.1243L27.5593 6.38641Z" fill="#A578C7"/>
</g>
<defs>
<clipPath id="clip0_168_432">
<rect width="32.4598" height="32.4598" fill="white" transform="translate(0.901962 0.391602)"/>
</clipPath>
</defs>
</svg>
