<svg width="34" height="34" viewBox="0 0 34 34" fill="none" xmlns="http://www.w3.org/2000/svg">
<path d="M23.5166 8.245C22.5484 7.13933 22.0147 5.71965 22.0149 4.25H17.6374V21.8167C17.6043 22.7675 17.2032 23.6684 16.5187 24.3291C15.8341 24.9899 14.9196 25.3589 13.9682 25.3583C11.9566 25.3583 10.2849 23.715 10.2849 21.675C10.2849 19.2383 12.6366 17.4108 15.0591 18.1617V13.685C10.1716 13.0333 5.89322 16.83 5.89322 21.675C5.89322 26.3925 9.80322 29.75 13.9541 29.75C18.4024 29.75 22.0149 26.1375 22.0149 21.675V12.7642C23.79 14.039 25.9212 14.7229 28.1066 14.7192V10.3417C28.1066 10.3417 25.4432 10.4692 23.5166 8.245Z" fill="#A578C7"/>
</svg>
