<svg width="1499" height="498" viewBox="0 0 1499 498" fill="none" xmlns="http://www.w3.org/2000/svg">
<path d="M-0.000732422 284.571V0H104.666V284.571L174.444 406.226L244.222 284.571V0H348.889V284.571L226.778 498H122.111L-0.000732422 284.571Z" fill="url(#paint0_linear_269_3327)" fill-opacity="0.5"/>
<path d="M383.369 446.777V51.2229C383.369 36.9943 395.581 24.9 420.003 14.94C444.425 4.98001 474.081 0 508.97 0H606.659C641.548 0 671.204 4.98001 695.626 14.94C720.048 24.9 732.259 36.9943 732.259 51.2229V133.037C732.259 157.226 731.096 179.991 728.771 201.334C726.445 222.677 718.885 241.649 706.093 258.249C672.367 304.254 599.681 327.257 488.036 327.257V441.086C488.036 444.88 491.525 448.2 498.503 451.046C505.481 453.891 513.622 455.314 522.925 455.314H592.703C602.007 455.314 610.148 453.891 617.126 451.046C624.104 448.2 627.592 444.88 627.592 441.086V426.857H732.259V446.777C732.259 461.006 720.048 473.1 695.626 483.06C671.204 493.02 641.548 498 606.659 498H508.97C474.081 498 444.425 493.02 420.003 483.06C395.581 473.1 383.369 461.006 383.369 446.777ZM488.036 284.571C519.437 284.571 544.44 281.489 563.048 275.323C581.655 269.157 595.611 259.671 604.915 246.866C615.381 233.586 621.778 216.749 624.104 196.354C626.43 175.96 627.592 151.534 627.592 123.077V56.9143C627.592 53.12 624.104 49.8 617.126 46.9543C610.148 44.1086 602.007 42.6857 592.703 42.6857H522.925C513.622 42.6857 505.481 44.1086 498.503 46.9543C491.525 49.8 488.036 53.12 488.036 56.9143V284.571Z" fill="url(#paint1_linear_269_3327)" fill-opacity="0.5"/>
<path d="M892.34 0H990.029C1024.92 0 1054.57 4.98001 1079 14.94C1103.42 24.9 1115.63 36.9943 1115.63 51.2229V71.1429H1010.96V56.9143C1010.96 53.12 1007.47 49.8 1000.5 46.9543C993.518 44.1086 985.377 42.6857 976.074 42.6857H906.296C896.992 42.6857 888.851 44.1086 881.873 46.9543C874.896 49.8 871.407 53.12 871.407 56.9143V441.086C871.407 444.88 874.896 448.2 881.873 451.046C888.851 453.891 896.992 455.314 906.296 455.314H976.074C985.377 455.314 993.518 453.891 1000.5 451.046C1007.47 448.2 1010.96 444.88 1010.96 441.086V327.257H941.185V284.571H1115.63V446.777C1115.63 461.006 1103.42 473.1 1079 483.06C1054.57 493.02 1024.92 498 990.029 498H892.34C857.451 498 827.795 493.02 803.373 483.06C778.951 473.1 766.74 461.006 766.74 446.777V51.2229C766.74 36.9943 778.951 24.9 803.373 14.94C827.795 4.98001 857.451 0 892.34 0Z" fill="url(#paint2_linear_269_3327)" fill-opacity="0.5"/>
<path d="M1150.11 51.2229C1150.11 36.9943 1162.32 24.9 1186.74 14.94C1211.17 4.98001 1240.82 0 1275.71 0H1373.4C1408.29 0 1437.94 4.98001 1462.37 14.94C1486.79 24.9 1499 36.9943 1499 51.2229V498H1394.33V327.257H1254.78V498H1150.11V51.2229ZM1394.33 284.571V56.9143C1394.33 53.12 1390.84 49.8 1383.87 46.9543C1376.89 44.1086 1368.75 42.6857 1359.44 42.6857H1289.67C1280.36 42.6857 1272.22 44.1086 1265.24 46.9543C1258.27 49.8 1254.78 53.12 1254.78 56.9143V284.571H1394.33Z" fill="url(#paint3_linear_269_3327)" fill-opacity="0.5"/>
<defs>
<linearGradient id="paint0_linear_269_3327" x1="-62.9013" y1="-40.7399" x2="1731.62" y2="76.9367" gradientUnits="userSpaceOnUse">
<stop stop-color="#79EFFF"/>
<stop offset="0.364583" stop-color="#FD3CE3"/>
<stop offset="0.739583" stop-color="#912BFF"/>
<stop offset="1" stop-color="#0095FF"/>
</linearGradient>
<linearGradient id="paint1_linear_269_3327" x1="-62.9013" y1="-40.7399" x2="1731.62" y2="76.9367" gradientUnits="userSpaceOnUse">
<stop stop-color="#79EFFF"/>
<stop offset="0.364583" stop-color="#FD3CE3"/>
<stop offset="0.739583" stop-color="#912BFF"/>
<stop offset="1" stop-color="#0095FF"/>
</linearGradient>
<linearGradient id="paint2_linear_269_3327" x1="-62.9013" y1="-40.7399" x2="1731.62" y2="76.9367" gradientUnits="userSpaceOnUse">
<stop stop-color="#79EFFF"/>
<stop offset="0.364583" stop-color="#FD3CE3"/>
<stop offset="0.739583" stop-color="#912BFF"/>
<stop offset="1" stop-color="#0095FF"/>
</linearGradient>
<linearGradient id="paint3_linear_269_3327" x1="-62.9013" y1="-40.7399" x2="1731.62" y2="76.9367" gradientUnits="userSpaceOnUse">
<stop stop-color="#79EFFF"/>
<stop offset="0.364583" stop-color="#FD3CE3"/>
<stop offset="0.739583" stop-color="#912BFF"/>
<stop offset="1" stop-color="#0095FF"/>
</linearGradient>
</defs>
</svg>
