<svg width="1500" height="610" viewBox="0 0 1500 610" fill="none" xmlns="http://www.w3.org/2000/svg">
<path d="M0 348.571V0H104.737V348.571L174.561 497.586L244.386 348.571V0H349.123V348.571L226.93 610H122.193L0 348.571Z" fill="url(#paint0_linear_2_521)" fill-opacity="0.14"/>
<path d="M383.626 547.257V62.7429C383.626 45.3143 395.845 30.5 420.284 18.3C444.722 6.10001 474.398 0 509.31 0H607.064C641.977 0 671.652 6.10001 696.091 18.3C720.529 30.5 732.748 45.3143 732.748 62.7429V162.957C732.748 192.586 731.585 220.471 729.257 246.614C726.93 272.757 719.365 295.995 706.564 316.329C672.816 372.681 600.082 400.857 488.363 400.857V540.286C488.363 544.933 491.854 549 498.836 552.486C505.819 555.971 513.965 557.714 523.275 557.714H593.099C602.409 557.714 610.556 555.971 617.538 552.486C624.52 549 628.012 544.933 628.012 540.286V522.857H732.748V547.257C732.748 564.686 720.529 579.5 696.091 591.7C671.652 603.9 641.977 610 607.064 610H509.31C474.398 610 444.722 603.9 420.284 591.7C395.845 579.5 383.626 564.686 383.626 547.257ZM488.363 348.571C519.784 348.571 544.804 344.795 563.424 337.243C582.044 329.69 596.009 318.071 605.319 302.386C615.792 286.119 622.193 265.495 624.52 240.514C626.848 215.533 628.012 185.614 628.012 150.757V69.7143C628.012 65.0667 624.52 61 617.538 57.5143C610.556 54.0286 602.409 52.2857 593.099 52.2857H523.275C513.965 52.2857 505.819 54.0286 498.836 57.5143C491.854 61 488.363 65.0667 488.363 69.7143V348.571Z" fill="url(#paint1_linear_2_521)" fill-opacity="0.14"/>
<path d="M892.936 0H990.69C1025.6 0 1055.28 6.10001 1079.72 18.3C1104.15 30.5 1116.37 45.3143 1116.37 62.7429V87.1429H1011.64V69.7143C1011.64 65.0667 1008.15 61 1001.16 57.5143C994.181 54.0286 986.035 52.2857 976.725 52.2857H906.901C897.591 52.2857 889.444 54.0286 882.462 57.5143C875.48 61 871.988 65.0667 871.988 69.7143V540.286C871.988 544.933 875.48 549 882.462 552.486C889.444 555.971 897.591 557.714 906.901 557.714H976.725C986.035 557.714 994.181 555.971 1001.16 552.486C1008.15 549 1011.64 544.933 1011.64 540.286V400.857H941.813V348.571H1116.37V547.257C1116.37 564.686 1104.15 579.5 1079.72 591.7C1055.28 603.9 1025.6 610 990.69 610H892.936C858.023 610 828.348 603.9 803.909 591.7C779.471 579.5 767.252 564.686 767.252 547.257V62.7429C767.252 45.3143 779.471 30.5 803.909 18.3C828.348 6.10001 858.023 0 892.936 0Z" fill="url(#paint2_linear_2_521)" fill-opacity="0.14"/>
<path d="M1150.88 62.7429C1150.88 45.3143 1163.1 30.5 1187.54 18.3C1211.97 6.10001 1241.65 0 1276.56 0H1374.32C1409.23 0 1438.9 6.10001 1463.34 18.3C1487.78 30.5 1500 45.3143 1500 62.7429V610H1395.26V400.857H1255.61V610H1150.88V62.7429ZM1395.26 348.571V69.7143C1395.26 65.0667 1391.77 61 1384.79 57.5143C1377.81 54.0286 1369.66 52.2857 1360.35 52.2857H1290.53C1281.22 52.2857 1273.07 54.0286 1266.09 57.5143C1259.11 61 1255.61 65.0667 1255.61 69.7143V348.571H1395.26Z" fill="url(#paint3_linear_2_521)" fill-opacity="0.14"/>
<defs>
<linearGradient id="paint0_linear_2_521" x1="-62.9425" y1="-49.9023" x2="1735.34" y2="46.4334" gradientUnits="userSpaceOnUse">
<stop stop-color="#79EFFF"/>
<stop offset="0.364583" stop-color="#FD3CE3"/>
<stop offset="0.739583" stop-color="#912BFF"/>
<stop offset="1" stop-color="#0095FF"/>
</linearGradient>
<linearGradient id="paint1_linear_2_521" x1="-62.9425" y1="-49.9023" x2="1735.34" y2="46.4334" gradientUnits="userSpaceOnUse">
<stop stop-color="#79EFFF"/>
<stop offset="0.364583" stop-color="#FD3CE3"/>
<stop offset="0.739583" stop-color="#912BFF"/>
<stop offset="1" stop-color="#0095FF"/>
</linearGradient>
<linearGradient id="paint2_linear_2_521" x1="-62.9425" y1="-49.9023" x2="1735.34" y2="46.4334" gradientUnits="userSpaceOnUse">
<stop stop-color="#79EFFF"/>
<stop offset="0.364583" stop-color="#FD3CE3"/>
<stop offset="0.739583" stop-color="#912BFF"/>
<stop offset="1" stop-color="#0095FF"/>
</linearGradient>
<linearGradient id="paint3_linear_2_521" x1="-62.9425" y1="-49.9023" x2="1735.34" y2="46.4334" gradientUnits="userSpaceOnUse">
<stop stop-color="#79EFFF"/>
<stop offset="0.364583" stop-color="#FD3CE3"/>
<stop offset="0.739583" stop-color="#912BFF"/>
<stop offset="1" stop-color="#0095FF"/>
</linearGradient>
</defs>
</svg>
