<svg width="288" height="237" viewBox="0 0 288 237" fill="none" xmlns="http://www.w3.org/2000/svg">
<path d="M0 135.429V0H20.1095V135.429L33.5158 193.324L46.9221 135.429V0H67.0315V135.429L43.5705 237H23.461L0 135.429Z" fill="url(#paint0_linear_272_2660)" fill-opacity="0.14"/>
<path d="M73.6562 212.623V24.3771C73.6562 17.6057 76.0023 11.85 80.6945 7.11001C85.3867 2.37 91.0844 0 97.7875 0H116.556C123.259 0 128.957 2.37 133.649 7.11001C138.342 11.85 140.688 17.6057 140.688 24.3771V63.3129C140.688 74.8243 140.464 85.6586 140.017 95.8157C139.571 105.973 138.118 115.001 135.66 122.901C129.181 144.796 115.216 155.743 93.7656 155.743V209.914C93.7656 211.72 94.4359 213.3 95.7766 214.654C97.1172 216.009 98.6813 216.686 100.469 216.686H113.875C115.663 216.686 117.227 216.009 118.567 214.654C119.908 213.3 120.578 211.72 120.578 209.914V203.143H140.688V212.623C140.688 219.394 138.342 225.15 133.649 229.89C128.957 234.63 123.259 237 116.556 237H97.7875C91.0844 237 85.3867 234.63 80.6945 229.89C76.0023 225.15 73.6562 219.394 73.6562 212.623ZM93.7656 135.429C99.7985 135.429 104.602 133.961 108.177 131.027C111.752 128.093 114.434 123.579 116.221 117.484C118.232 111.164 119.461 103.151 119.908 93.4457C120.355 83.74 120.578 72.1157 120.578 58.5729V27.0857C120.578 25.28 119.908 23.7 118.567 22.3457C117.227 20.9914 115.663 20.3143 113.875 20.3143H100.469C98.6813 20.3143 97.1172 20.9914 95.7766 22.3457C94.4359 23.7 93.7656 25.28 93.7656 27.0857V135.429Z" fill="url(#paint1_linear_272_2660)" fill-opacity="0.14"/>
<path d="M171.444 0H190.212C196.916 0 202.613 2.37 207.306 7.11001C211.998 11.85 214.344 17.6057 214.344 24.3771V33.8571H194.234V27.0857C194.234 25.28 193.564 23.7 192.223 22.3457C190.883 20.9914 189.319 20.3143 187.531 20.3143H174.125C172.337 20.3143 170.773 20.9914 169.433 22.3457C168.092 23.7 167.422 25.28 167.422 27.0857V209.914C167.422 211.72 168.092 213.3 169.433 214.654C170.773 216.009 172.337 216.686 174.125 216.686H187.531C189.319 216.686 190.883 216.009 192.223 214.654C193.564 213.3 194.234 211.72 194.234 209.914V155.743H180.828V135.429H214.344V212.623C214.344 219.394 211.998 225.15 207.306 229.89C202.613 234.63 196.916 237 190.212 237H171.444C164.741 237 159.043 234.63 154.351 229.89C149.658 225.15 147.312 219.394 147.312 212.623V24.3771C147.312 17.6057 149.658 11.85 154.351 7.11001C159.043 2.37 164.741 0 171.444 0Z" fill="url(#paint2_linear_272_2660)" fill-opacity="0.14"/>
<path d="M220.968 24.3771C220.968 17.6057 223.315 11.85 228.007 7.11001C232.699 2.37 238.397 0 245.1 0H263.869C270.572 0 276.269 2.37 280.962 7.11001C285.654 11.85 288 17.6057 288 24.3771V237H267.891V155.743H241.078V237H220.968V24.3771ZM267.891 135.429V27.0857C267.891 25.28 267.22 23.7 265.88 22.3457C264.539 20.9914 262.975 20.3143 261.187 20.3143H247.781C245.994 20.3143 244.43 20.9914 243.089 22.3457C241.748 23.7 241.078 25.28 241.078 27.0857V135.429H267.891Z" fill="url(#paint3_linear_272_2660)" fill-opacity="0.14"/>
<defs>
<linearGradient id="paint0_linear_272_2660" x1="-12.085" y1="-19.3883" x2="333.934" y2="-10.2279" gradientUnits="userSpaceOnUse">
<stop stop-color="#79EFFF"/>
<stop offset="0.364583" stop-color="#FD3CE3"/>
<stop offset="0.739583" stop-color="#912BFF"/>
<stop offset="1" stop-color="#0095FF"/>
</linearGradient>
<linearGradient id="paint1_linear_272_2660" x1="-12.085" y1="-19.3883" x2="333.934" y2="-10.2279" gradientUnits="userSpaceOnUse">
<stop stop-color="#79EFFF"/>
<stop offset="0.364583" stop-color="#FD3CE3"/>
<stop offset="0.739583" stop-color="#912BFF"/>
<stop offset="1" stop-color="#0095FF"/>
</linearGradient>
<linearGradient id="paint2_linear_272_2660" x1="-12.085" y1="-19.3883" x2="333.934" y2="-10.2279" gradientUnits="userSpaceOnUse">
<stop stop-color="#79EFFF"/>
<stop offset="0.364583" stop-color="#FD3CE3"/>
<stop offset="0.739583" stop-color="#912BFF"/>
<stop offset="1" stop-color="#0095FF"/>
</linearGradient>
<linearGradient id="paint3_linear_272_2660" x1="-12.085" y1="-19.3883" x2="333.934" y2="-10.2279" gradientUnits="userSpaceOnUse">
<stop stop-color="#79EFFF"/>
<stop offset="0.364583" stop-color="#FD3CE3"/>
<stop offset="0.739583" stop-color="#912BFF"/>
<stop offset="1" stop-color="#0095FF"/>
</linearGradient>
</defs>
</svg>
