<svg width="68" height="68" viewBox="0 0 68 68" fill="none" xmlns="http://www.w3.org/2000/svg">
<g filter="url(#filter0_d_445_39826)">
<circle cx="34" cy="34" r="28" fill="#6D3C82"/>
</g>
<path d="M28.9563 26.7525C28.724 26.7187 28.4871 26.7654 28.2851 26.885H28.2676C27.7988 27.16 27.3763 27.5063 27.0163 27.9138C26.7163 28.26 26.5538 28.61 26.5113 28.9475C26.4863 29.1475 26.5038 29.35 26.5626 29.5412L26.5851 29.5538C26.9226 30.545 27.3626 31.4988 27.9001 32.3962C28.5931 33.6569 29.446 34.8227 30.4376 35.865L30.4676 35.9075L30.5151 35.9425L30.5438 35.9763L30.5788 36.0062C31.6247 37.0008 32.7933 37.8577 34.0563 38.5563C35.5001 39.3425 36.3763 39.7137 36.9026 39.8687V39.8763C37.0563 39.9237 37.1963 39.945 37.3376 39.945C37.7857 39.9119 38.2099 39.7297 38.5426 39.4275C38.9488 39.0675 39.2926 38.6438 39.5601 38.1725V38.1638C39.8113 37.6888 39.7263 37.2413 39.3638 36.9375C38.6357 36.3013 37.8483 35.7362 37.0126 35.25C36.4526 34.9462 35.8838 35.13 35.6538 35.4375L35.1626 36.0575C34.9101 36.365 34.4526 36.3225 34.4526 36.3225L34.4401 36.33C31.0263 35.4588 30.1151 32.0025 30.1151 32.0025C30.1151 32.0025 30.0726 31.5325 30.3888 31.2925L31.0038 30.7975C31.2988 30.5575 31.5038 29.99 31.1876 29.43C30.7046 28.5935 30.1406 27.8063 29.5038 27.08C29.3649 26.9091 29.1701 26.7926 28.9538 26.7513L28.9563 26.7525ZM34.7251 25.25C34.5593 25.25 34.4003 25.3158 34.2831 25.4331C34.1659 25.5503 34.1001 25.7092 34.1001 25.875C34.1001 26.0408 34.1659 26.1997 34.2831 26.3169C34.4003 26.4342 34.5593 26.5 34.7251 26.5C36.3051 26.5 37.6176 27.0162 38.6563 28.0062C39.1901 28.5475 39.6063 29.1888 39.8788 29.8913C40.1526 30.595 40.2776 31.3463 40.2451 32.0988C40.2381 32.2645 40.2973 32.4262 40.4096 32.5484C40.5218 32.6705 40.678 32.743 40.8438 32.75C41.0096 32.757 41.1713 32.6978 41.2934 32.5855C41.4156 32.4732 41.4881 32.317 41.4951 32.1512C41.5338 31.2256 41.3802 30.302 41.0438 29.4387C40.706 28.5714 40.1937 27.7826 39.5388 27.1213L39.5263 27.1087C38.2376 25.8775 36.6076 25.25 34.7251 25.25Z" fill="white"/>
<path d="M34.6816 27.305C34.5159 27.305 34.3569 27.3708 34.2397 27.488C34.1225 27.6052 34.0566 27.7642 34.0566 27.93C34.0566 28.0957 34.1225 28.2547 34.2397 28.3719C34.3569 28.4891 34.5159 28.555 34.6816 28.555H34.7029C35.8429 28.6362 36.6729 29.0162 37.2541 29.64C37.8504 30.2825 38.1591 31.0812 38.1354 32.0687C38.1316 32.2345 38.1938 32.395 38.3083 32.5149C38.4228 32.6348 38.5803 32.7043 38.746 32.7081C38.9118 32.7119 39.0723 32.6497 39.1922 32.5352C39.3121 32.4207 39.3816 32.2632 39.3854 32.0975C39.4154 30.8012 38.9979 29.6825 38.1704 28.79V28.7875C37.3241 27.88 36.1629 27.4 34.7654 27.3062L34.7441 27.3037L34.6816 27.305Z" fill="white"/>
<path d="M34.6575 29.3989C34.5738 29.3915 34.4896 29.4011 34.4097 29.427C34.3298 29.4529 34.256 29.4946 34.1926 29.5497C34.1292 29.6048 34.0776 29.6721 34.0408 29.7475C34.004 29.823 33.9828 29.9051 33.9784 29.989C33.974 30.0728 33.9866 30.1567 34.0154 30.2356C34.0441 30.3145 34.0885 30.3867 34.1458 30.4481C34.2031 30.5095 34.2722 30.5587 34.3489 30.5927C34.4257 30.6268 34.5085 30.6451 34.5925 30.6464C35.115 30.6739 35.4487 30.8314 35.6587 31.0427C35.87 31.2552 36.0275 31.5964 36.0562 32.1302C36.0578 32.214 36.0762 32.2967 36.1104 32.3733C36.1446 32.4499 36.1939 32.5189 36.2553 32.576C36.3167 32.6332 36.389 32.6774 36.4678 32.706C36.5467 32.7346 36.6305 32.7471 36.7143 32.7427C36.798 32.7382 36.88 32.7169 36.9554 32.6801C37.0308 32.6433 37.098 32.5917 37.153 32.5283C37.208 32.465 37.2497 32.3912 37.2756 32.3115C37.3015 32.2317 37.3111 32.1475 37.3037 32.0639C37.2637 31.3139 37.0287 30.6514 36.5475 30.1639C36.0637 29.6764 35.405 29.4389 34.6575 29.3989Z" fill="white"/>
<path fill-rule="evenodd" clip-rule="evenodd" d="M27.8338 21.9798C31.8113 21.0907 35.9362 21.0907 39.9138 21.9798L40.3375 22.0736C41.5003 22.3335 42.5682 22.9107 43.4226 23.7411C44.277 24.5715 44.8845 25.6225 45.1775 26.7773C46.1871 30.7559 46.1871 34.9237 45.1775 38.9023C44.8845 40.0572 44.277 41.1082 43.4226 41.9385C42.5682 42.7689 41.5003 43.3461 40.3375 43.6061L39.9125 43.6998C37.4213 44.2569 34.865 44.4668 32.3163 44.3236L29 47.2911C28.875 47.403 28.7222 47.4793 28.5576 47.5121C28.393 47.5448 28.2227 47.5328 28.0643 47.4773C27.906 47.4217 27.7654 47.3247 27.6574 47.1963C27.5493 47.0679 27.4777 46.9128 27.45 46.7473L26.9013 43.4698C25.849 43.1424 24.8983 42.5506 24.14 41.7509C23.3817 40.9513 22.8411 39.9705 22.57 38.9023C21.5603 34.9237 21.5603 30.7559 22.57 26.7773C22.863 25.6225 23.4705 24.5715 24.3249 23.7411C25.1793 22.9107 26.2473 22.3335 27.41 22.0736L27.8338 21.9798ZM39.505 23.8086C35.7966 22.9796 31.9509 22.9796 28.2425 23.8086L27.8175 23.9036C26.9934 24.0881 26.2366 24.4975 25.6311 25.0862C25.0256 25.675 24.5951 26.42 24.3875 27.2386C23.4546 30.9145 23.4546 34.7652 24.3875 38.4411C24.5952 39.2598 25.0259 40.005 25.6316 40.5937C26.2373 41.1824 26.9944 41.5917 27.8188 41.7761L27.9313 41.8011C28.1132 41.8418 28.279 41.9358 28.4072 42.0712C28.5355 42.2066 28.6204 42.3772 28.6513 42.5611L29.0188 44.7586L31.3588 42.6648C31.4522 42.581 31.5615 42.5167 31.6803 42.4759C31.799 42.4351 31.9248 42.4186 32.05 42.4273C34.5488 42.6046 37.0602 42.4172 39.505 41.8711L39.9288 41.7761C40.7531 41.5917 41.5102 41.1824 42.1159 40.5937C42.7216 40.005 43.1523 39.2598 43.36 38.4411C44.2925 34.7661 44.2925 30.9148 43.36 27.2386C43.1523 26.4198 42.7216 25.6747 42.1159 25.086C41.5102 24.4972 40.7531 24.0879 39.9288 23.9036L39.505 23.8086Z" fill="white"/>
<defs>
<filter id="filter0_d_445_39826" x="0" y="0" width="68" height="68" filterUnits="userSpaceOnUse" color-interpolation-filters="sRGB">
<feFlood flood-opacity="0" result="BackgroundImageFix"/>
<feColorMatrix in="SourceAlpha" type="matrix" values="0 0 0 0 0 0 0 0 0 0 0 0 0 0 0 0 0 0 127 0" result="hardAlpha"/>
<feOffset/>
<feGaussianBlur stdDeviation="3"/>
<feComposite in2="hardAlpha" operator="out"/>
<feColorMatrix type="matrix" values="0 0 0 0 0.705882 0 0 0 0 0.682353 0 0 0 0 0.654902 0 0 0 0.25 0"/>
<feBlend mode="normal" in2="BackgroundImageFix" result="effect1_dropShadow_445_39826"/>
<feBlend mode="normal" in="SourceGraphic" in2="effect1_dropShadow_445_39826" result="shape"/>
</filter>
</defs>
</svg>
