<svg width="68" height="68" viewBox="0 0 68 68" fill="none" xmlns="http://www.w3.org/2000/svg">
<g filter="url(#filter0_d_445_39820)">
<circle cx="34" cy="34" r="28" fill="#27D045"/>
</g>
<path d="M42.8125 25.1376C41.6665 23.98 40.3015 23.0622 38.797 22.4376C37.2926 21.8131 35.6789 21.4944 34.05 21.5001C27.225 21.5001 21.6625 27.0626 21.6625 33.8876C21.6625 36.0751 22.2375 38.2001 23.3125 40.0751L21.5625 46.5001L28.125 44.7751C29.9375 45.7626 31.975 46.2876 34.05 46.2876C40.875 46.2876 46.4375 40.7251 46.4375 33.9001C46.4375 30.5876 45.15 27.4751 42.8125 25.1376ZM34.05 44.1876C32.2 44.1876 30.3875 43.6876 28.8 42.7501L28.425 42.5251L24.525 43.5501L25.5625 39.7501L25.3125 39.3626C24.2847 37.7213 23.7389 35.8241 23.7375 33.8876C23.7375 28.2126 28.3625 23.5876 34.0375 23.5876C36.7875 23.5876 39.375 24.6626 41.3125 26.6126C42.2719 27.5675 43.0321 28.7034 43.5492 29.9544C44.0664 31.2053 44.33 32.5465 44.325 33.9001C44.35 39.5751 39.725 44.1876 34.05 44.1876ZM39.7 36.4876C39.3875 36.3376 37.8625 35.5876 37.5875 35.4751C37.3 35.3751 37.1 35.3251 36.8875 35.6251C36.675 35.9376 36.0875 36.6376 35.9125 36.8376C35.7375 37.0501 35.55 37.0751 35.2375 36.9126C34.925 36.7626 33.925 36.4251 32.75 35.3751C31.825 34.5501 31.2125 33.5376 31.025 33.2251C30.85 32.9126 31 32.7501 31.1625 32.5876C31.3 32.4501 31.475 32.2251 31.625 32.0501C31.775 31.8751 31.8375 31.7376 31.9375 31.5376C32.0375 31.3251 31.9875 31.1501 31.9125 31.0001C31.8375 30.8501 31.2125 29.3251 30.9625 28.7001C30.7125 28.1001 30.45 28.1751 30.2625 28.1626H29.6625C29.45 28.1626 29.125 28.2376 28.8375 28.5501C28.5625 28.8626 27.7625 29.6126 27.7625 31.1376C27.7625 32.6626 28.875 34.1376 29.025 34.3376C29.175 34.5501 31.2125 37.6751 34.3125 39.0126C35.05 39.3376 35.625 39.5251 36.075 39.6626C36.8125 39.9001 37.4875 39.8626 38.025 39.7876C38.625 39.7001 39.8625 39.0376 40.1125 38.3126C40.375 37.5876 40.375 36.9751 40.2875 36.8376C40.2 36.7001 40.0125 36.6376 39.7 36.4876Z" fill="white"/>
<defs>
<filter id="filter0_d_445_39820" x="0" y="0" width="68" height="68" filterUnits="userSpaceOnUse" color-interpolation-filters="sRGB">
<feFlood flood-opacity="0" result="BackgroundImageFix"/>
<feColorMatrix in="SourceAlpha" type="matrix" values="0 0 0 0 0 0 0 0 0 0 0 0 0 0 0 0 0 0 127 0" result="hardAlpha"/>
<feOffset/>
<feGaussianBlur stdDeviation="3"/>
<feComposite in2="hardAlpha" operator="out"/>
<feColorMatrix type="matrix" values="0 0 0 0 0.705882 0 0 0 0 0.682353 0 0 0 0 0.654902 0 0 0 0.25 0"/>
<feBlend mode="normal" in2="BackgroundImageFix" result="effect1_dropShadow_445_39820"/>
<feBlend mode="normal" in="SourceGraphic" in2="effect1_dropShadow_445_39820" result="shape"/>
</filter>
</defs>
</svg>
