<svg width="36" height="36" viewBox="0 0 36 36" fill="none" xmlns="http://www.w3.org/2000/svg">
<path d="M33.0474 17.6315C33.0474 17.7059 33.0474 17.7905 33.044 17.8885C33.0406 18.1624 33.0338 18.4701 33.0271 18.7981C33 19.7414 32.9527 20.6814 32.8783 21.5673C32.7769 22.7879 32.6281 23.8057 32.4252 24.5698C32.2111 25.3673 31.7915 26.0946 31.2082 26.679C30.6249 27.2635 29.8985 27.6846 29.1015 27.9003C28.1446 28.1573 26.2714 28.3162 23.634 28.4143C22.3796 28.4616 21.0372 28.492 19.6949 28.5089C19.2249 28.5157 18.7887 28.5191 18.3965 28.5225H17.4024C17.0102 28.5191 16.574 28.5157 16.104 28.5089C14.7617 28.492 13.4194 28.4616 12.1649 28.4143C9.52756 28.3128 7.65098 28.1539 6.69748 27.9003C5.90019 27.6851 5.17345 27.2642 4.59011 26.6797C4.00676 26.0951 3.58729 25.3675 3.37373 24.5698C3.16748 23.8057 3.02208 22.7879 2.92065 21.5673C2.84626 20.6814 2.79892 19.7414 2.77187 18.7981C2.76173 18.4701 2.75835 18.1624 2.75497 17.8885C2.75497 17.7905 2.75159 17.7059 2.75159 17.6315V17.4422C2.75159 17.3678 2.75159 17.2833 2.75497 17.1852C2.75835 16.9113 2.76511 16.6036 2.77187 16.2757C2.79892 15.3323 2.84626 14.3923 2.92065 13.5064C3.02208 12.2858 3.17086 11.2681 3.37373 10.5039C3.80653 8.88431 5.07787 7.6062 6.69748 7.17341C7.65098 6.91643 9.52756 6.75752 12.1649 6.65946C13.4194 6.61213 14.7617 6.58169 16.104 6.56479C16.574 6.55802 17.0102 6.55464 17.4024 6.55126H18.3965C18.7887 6.55464 19.2249 6.55802 19.6949 6.56479C21.0372 6.58169 22.3796 6.61213 23.634 6.65946C26.2714 6.7609 28.148 6.91982 29.1015 7.17341C30.7211 7.6062 31.9924 8.88093 32.4252 10.5039C32.6315 11.2681 32.7769 12.2858 32.8783 13.5064C32.9527 14.3923 33 15.3323 33.0271 16.2757C33.0372 16.6036 33.0406 16.9113 33.044 17.1852C33.044 17.2833 33.0474 17.3678 33.0474 17.4422V17.6315ZM30.6129 17.4557C30.6129 17.3847 30.6129 17.3069 30.6095 17.2156C30.6061 16.9519 30.5994 16.6611 30.5926 16.3467C30.5689 15.4473 30.5216 14.5479 30.4506 13.7127C30.3593 12.6239 30.2308 11.7313 30.0719 11.1328C29.8622 10.3518 29.2469 9.73299 28.4692 9.52674C27.7591 9.33739 25.9705 9.18524 23.5394 9.09394C22.3086 9.04661 20.9832 9.01617 19.6611 8.99927C19.1979 8.99251 18.7684 8.98913 18.383 8.98913H17.416L16.1379 8.99927C14.8158 9.01617 13.4937 9.04661 12.2596 9.09394C9.82849 9.18862 8.03644 9.33739 7.32976 9.52674C6.55208 9.73637 5.9367 10.3518 5.72706 11.1328C5.56815 11.7313 5.43966 12.6239 5.34837 13.7127C5.27736 14.5479 5.23341 15.4473 5.20636 16.3467C5.19621 16.6611 5.19283 16.9553 5.18945 17.2156C5.18945 17.3069 5.18607 17.3881 5.18607 17.4557V17.618C5.18607 17.689 5.18607 17.7668 5.18945 17.8581C5.19283 18.1218 5.19959 18.4126 5.20636 18.7271C5.23002 19.6265 5.27736 20.5259 5.34837 21.361C5.43966 22.4498 5.56815 23.3424 5.72706 23.9409C5.9367 24.722 6.55208 25.3407 7.32976 25.547C8.03982 25.7363 9.82849 25.8885 12.2596 25.9798C13.4904 26.0271 14.8158 26.0575 16.1379 26.0745C16.6011 26.0812 17.0305 26.0846 17.416 26.0846H18.383L19.6611 26.0745C20.9832 26.0575 22.3052 26.0271 23.5394 25.9798C25.9705 25.8851 27.7625 25.7363 28.4692 25.547C29.2469 25.3373 29.8622 24.722 30.0719 23.9409C30.2308 23.3424 30.3593 22.4498 30.4506 21.361C30.5216 20.5259 30.5655 19.6265 30.5926 18.7271C30.6027 18.4126 30.6061 18.1184 30.6095 17.8581C30.6095 17.7668 30.6129 17.6856 30.6129 17.618V17.4557ZM14.8902 13.006L22.7346 17.5707L14.8902 22.0677V13.006Z" fill="#A578C7"/>
</svg>
